<svg width="784" height="322" viewBox="0 0 784 322" fill="none" xmlns="http://www.w3.org/2000/svg">
<path d="M0 0H74.98C101.047 0 120.06 6.13334 132.02 18.4C143.98 30.36 149.96 48.9133 149.96 74.06V93.84C149.96 127.267 138.92 148.427 116.84 157.32V158.24C129.107 161.92 137.693 169.433 142.6 180.78C147.813 192.127 150.42 207.307 150.42 226.32V282.9C150.42 292.1 150.727 299.613 151.34 305.44C151.953 310.96 153.487 316.48 155.94 322H104.42C102.58 316.787 101.353 311.88 100.74 307.28C100.127 302.68 99.82 294.4 99.82 282.44V223.56C99.82 208.84 97.3667 198.567 92.46 192.74C87.86 186.913 79.7333 184 68.08 184H50.6V322H0V0ZM69 138C79.12 138 86.6333 135.393 91.54 130.18C96.7533 124.967 99.36 116.227 99.36 103.96V79.12C99.36 67.4667 97.2133 59.0333 92.92 53.82C88.9333 48.6067 82.4933 46 73.6 46H50.6V138H69Z" fill="white"/>
<path d="M185.527 0H236.127V322H185.527V0Z" fill="white"/>
<path d="M274.023 0H351.303C376.45 0 395.31 6.74667 407.883 20.24C420.457 33.7333 426.743 53.5133 426.743 79.58V242.42C426.743 268.487 420.457 288.267 407.883 301.76C395.31 315.253 376.45 322 351.303 322H274.023V0ZM350.383 276C358.663 276 364.95 273.547 369.243 268.64C373.843 263.733 376.143 255.76 376.143 244.72V77.28C376.143 66.24 373.843 58.2667 369.243 53.36C364.95 48.4533 358.663 46 350.383 46H324.623V276H350.383Z" fill="white"/>
<path d="M460.898 0H598.898V46H511.498V131.1H580.958V177.1H511.498V276H598.898V322H460.898V0Z" fill="white"/>
<path d="M628.008 0H702.988C729.054 0 748.068 6.13334 760.028 18.4C771.988 30.36 777.968 48.9133 777.968 74.06V93.84C777.968 127.267 766.928 148.427 744.848 157.32V158.24C757.115 161.92 765.701 169.433 770.608 180.78C775.821 192.127 778.428 207.307 778.428 226.32V282.9C778.428 292.1 778.735 299.613 779.348 305.44C779.961 310.96 781.494 316.48 783.948 322H732.428C730.588 316.787 729.361 311.88 728.748 307.28C728.134 302.68 727.828 294.4 727.828 282.44V223.56C727.828 208.84 725.375 198.567 720.468 192.74C715.868 186.913 707.741 184 696.088 184H678.608V322H628.008V0ZM697.008 138C707.128 138 714.641 135.393 719.548 130.18C724.761 124.967 727.368 116.227 727.368 103.96V79.12C727.368 67.4667 725.221 59.0333 720.928 53.82C716.941 48.6067 710.501 46 701.608 46H678.608V138H697.008Z" fill="white"/>
</svg>
