<svg width="55" height="35" viewBox="0 0 55 35" fill="none" xmlns="http://www.w3.org/2000/svg">
<path d="M0 28.5005C0 28.5005 0 18.7512 5.5 18.7512C7.37 18.7512 9.515 18.5887 11.77 18.1662C14.3 20.506 17.875 22.0009 22 22.0009H22.6875L18.04 16.4438C19.0025 16.0863 19.9375 15.6639 20.8725 15.2089L26.125 21.416C27.1975 21.156 28.1875 20.7985 29.095 20.376L23.5125 13.714C24.3375 13.1616 25.135 12.6091 25.9325 11.9591L31.625 18.7512C32.45 18.0687 33.11 17.3213 33.6875 16.5413L28.105 9.94429C28.765 9.22934 29.425 8.4494 30.03 7.63695L35.1725 13.714C35.5025 12.7066 35.75 11.6992 35.75 10.6267C35.75 7.86444 34.5125 5.39462 32.56 3.41226C32.6975 3.11978 32.8625 2.8273 33 2.50232L37.2075 0C39.545 3.05478 44.385 5.23213 50.1875 5.6546L50.325 5.75209H52.25C52.25 5.75209 55 9.00186 55 20.376C55 22.2284 55 23.8533 54.89 25.2507H46.75C43.725 25.2507 40.095 26.0956 36.575 26.8756C33.33 27.7205 29.975 28.5005 27.5 28.5005H0ZM52.25 35C52.25 35 53.845 35 54.615 28.5005H46.75C41.25 28.5005 33 31.7502 27.5 31.7502H0.77C1.705 33.7001 3.465 35 5.5 35H52.25Z" fill="#202020"/>
</svg>
