<svg width="286" height="45" viewBox="0 0 286 45" fill="none" xmlns="http://www.w3.org/2000/svg">
<path d="M0 33.5005C0 33.5005 0 23.7512 5.5 23.7512C7.37 23.7512 9.515 23.5887 11.77 23.1662C14.3 25.506 17.875 27.0009 22 27.0009H22.6875L18.04 21.4438C19.0025 21.0863 19.9375 20.6639 20.8725 20.2089L26.125 26.416C27.1975 26.156 28.1875 25.7985 29.095 25.376L23.5125 18.714C24.3375 18.1616 25.135 17.6091 25.9325 16.9591L31.625 23.7512C32.45 23.0687 33.11 22.3213 33.6875 21.5413L28.105 14.9443C28.765 14.2293 29.425 13.4494 30.03 12.637L35.1725 18.714C35.5025 17.7066 35.75 16.6992 35.75 15.6267C35.75 12.8644 34.5125 10.3946 32.56 8.41226C32.6975 8.11978 32.8625 7.8273 33 7.50232L37.2075 5C39.545 8.05478 44.385 10.2321 50.1875 10.6546L50.325 10.7521H52.25C52.25 10.7521 55 14.0019 55 25.376C55 27.2284 55 28.8533 54.89 30.2507H46.75C43.725 30.2507 40.095 31.0956 36.575 31.8756C33.33 32.7205 29.975 33.5005 27.5 33.5005H0ZM52.25 40C52.25 40 53.845 40 54.615 33.5005H46.75C41.25 33.5005 33 36.7502 27.5 36.7502H0.77C1.705 38.7001 3.465 40 5.5 40H52.25Z" fill="#202020"/>
<path d="M76.2245 35.9303C74.2163 35.9303 72.2917 35.6674 70.4509 35.1414C68.61 34.5915 67.1278 33.8863 66.0041 33.0256L67.9765 28.6505C69.0523 29.4156 70.3194 30.0491 71.7777 30.5512C73.26 31.0293 74.7542 31.2684 76.2604 31.2684C77.4079 31.2684 78.3283 31.1608 79.0217 30.9457C79.7389 30.7066 80.2648 30.3838 80.5995 29.9774C80.9342 29.571 81.1016 29.1048 81.1016 28.5788C81.1016 27.9094 80.8386 27.3835 80.3126 27.0009C79.7867 26.5945 79.0934 26.2718 78.2327 26.0327C77.372 25.7697 76.4158 25.5306 75.3638 25.3155C74.3358 25.0764 73.2958 24.7895 72.2439 24.4548C71.2159 24.1201 70.2716 23.6898 69.4109 23.1638C68.5502 22.6379 67.845 21.9445 67.2951 21.0839C66.7691 20.2232 66.5062 19.1235 66.5062 17.7847C66.5062 16.3502 66.8887 15.0473 67.6537 13.8758C68.4427 12.6804 69.6141 11.7361 71.1681 11.0428C72.746 10.3256 74.7183 9.96697 77.0852 9.96697C78.663 9.96697 80.217 10.1582 81.7471 10.5407C83.2772 10.8994 84.6279 11.4492 85.7994 12.1903L84.0063 16.6013C82.8349 15.9318 81.6634 15.4417 80.492 15.131C79.3205 14.7962 78.1729 14.6289 77.0493 14.6289C75.9257 14.6289 75.0052 14.7604 74.288 15.0234C73.5708 15.2863 73.0568 15.633 72.746 16.0633C72.4352 16.4698 72.2798 16.9479 72.2798 17.4978C72.2798 18.1433 72.5428 18.6692 73.0687 19.0757C73.5947 19.4582 74.288 19.769 75.1487 20.008C76.0093 20.2471 76.9537 20.4862 77.9817 20.7253C79.0336 20.9643 80.0736 21.2393 81.1016 21.5501C82.1535 21.8609 83.1098 22.2792 83.9705 22.8052C84.8311 23.3312 85.5244 24.0245 86.0504 24.8851C86.6003 25.7458 86.8752 26.8336 86.8752 28.1485C86.8752 29.559 86.4807 30.85 85.6918 32.0215C84.9029 33.1929 83.7194 34.1373 82.1416 34.8545C80.5876 35.5717 78.6152 35.9303 76.2245 35.9303ZM90.8449 35.5V10.3973H95.6502L110.461 28.4712H108.13V10.3973H113.868V35.5H109.098L94.2516 17.4261H96.5826V35.5H90.8449ZM125.15 20.5101H137.235V25.0286H125.15V20.5101ZM125.58 30.8381H139.243V35.5H119.807V10.3973H138.777V15.0592H125.58V30.8381ZM140.567 35.5L151.755 10.3973H157.493L168.718 35.5H162.621L153.441 13.3379H155.736L146.52 35.5H140.567ZM146.161 30.1208L147.703 25.7099H160.613L162.191 30.1208H146.161ZM176.522 29.7622L176.199 23.0562L188.213 10.3973H194.667L183.837 22.0521L180.61 25.4948L176.522 29.7622ZM171.322 35.5V10.3973H177.096V35.5H171.322ZM188.499 35.5L179.57 24.5624L183.371 20.4384L195.277 35.5H188.499Z" fill="#202020"/>
<path d="M197.868 35.5V10.3973H208.733C210.981 10.3973 212.917 10.7679 214.543 11.509C216.169 12.2262 217.424 13.2662 218.308 14.6289C219.193 15.9916 219.635 17.6173 219.635 19.506C219.635 21.3708 219.193 22.9845 218.308 24.3472C217.424 25.7099 216.169 26.7619 214.543 27.503C212.917 28.2202 210.981 28.5788 208.733 28.5788H201.095L203.677 25.961V35.5H197.868ZM203.677 26.6065L201.095 23.8452H208.411C210.204 23.8452 211.543 23.4627 212.427 22.6976C213.312 21.9326 213.754 20.8687 213.754 19.506C213.754 18.1194 213.312 17.0435 212.427 16.2785C211.543 15.5135 210.204 15.131 208.411 15.131H201.095L203.677 12.3697V26.6065ZM223.783 35.5V10.3973H229.592V35.5H223.783ZM247.563 35.9303C245.627 35.9303 243.822 35.6195 242.148 34.9979C240.498 34.3524 239.064 33.444 237.845 32.2725C236.625 31.1011 235.669 29.7264 234.976 28.1485C234.306 26.5706 233.972 24.8373 233.972 22.9486C233.972 21.06 234.306 19.3267 234.976 17.7488C235.669 16.1709 236.625 14.7962 237.845 13.6248C239.088 12.4533 240.534 11.5568 242.184 10.9352C243.833 10.2897 245.638 9.96697 247.599 9.96697C249.774 9.96697 251.735 10.3495 253.48 11.1145C255.249 11.8556 256.731 12.9554 257.927 14.4137L254.197 17.8564C253.337 16.8762 252.38 16.147 251.328 15.6689C250.277 15.1668 249.129 14.9158 247.886 14.9158C246.714 14.9158 245.638 15.107 244.658 15.4896C243.678 15.8721 242.829 16.4219 242.112 17.1392C241.395 17.8564 240.833 18.7051 240.427 19.6853C240.044 20.6655 239.853 21.7533 239.853 22.9486C239.853 24.144 240.044 25.2318 240.427 26.212C240.833 27.1922 241.395 28.0409 242.112 28.7581C242.829 29.4754 243.678 30.0252 244.658 30.4077C245.638 30.7903 246.714 30.9815 247.886 30.9815C249.129 30.9815 250.277 30.7424 251.328 30.2643C252.38 29.7622 253.337 29.0092 254.197 28.0051L257.927 31.4477C256.731 32.9061 255.249 34.0177 253.48 34.7828C251.735 35.5478 249.763 35.9303 247.563 35.9303ZM267.05 29.7622L266.727 23.0562L278.741 10.3973H285.196L274.365 22.0521L271.138 25.4948L267.05 29.7622ZM261.85 35.5V10.3973H267.624V35.5H261.85ZM279.027 35.5L270.098 24.5624L273.899 20.4384L285.805 35.5H279.027Z" fill="#FFBF00"/>
</svg>
