<svg width="889" height="332" viewBox="0 0 889 332" fill="none" xmlns="http://www.w3.org/2000/svg">
<path d="M74.52 331.2C49.9867 331.2 31.4333 324.3 18.86 310.5C6.28667 296.393 0 276.307 0 250.24V231.84H47.84V253.92C47.84 274.773 56.58 285.2 74.06 285.2C82.6467 285.2 89.0867 282.747 93.38 277.84C97.98 272.627 100.28 264.347 100.28 253C100.28 239.507 97.2133 227.7 91.08 217.58C84.9467 207.153 73.6 194.733 57.04 180.32C36.1867 161.92 21.62 145.36 13.34 130.64C5.06 115.613 0.919999 98.7467 0.919999 80.04C0.919999 54.5867 7.36 34.96 20.24 21.16C33.12 7.05333 51.8267 0 76.36 0C100.587 0 118.833 7.05333 131.1 21.16C143.673 34.96 149.96 54.8933 149.96 80.96V94.3H102.12V77.74C102.12 66.7 99.9733 58.7267 95.68 53.82C91.3867 48.6067 85.1 46 76.82 46C59.9533 46 51.52 56.2733 51.52 76.82C51.52 88.4733 54.5867 99.36 60.72 109.48C67.16 119.6 78.66 131.867 95.22 146.28C116.38 164.68 130.947 181.393 138.92 196.42C146.893 211.447 150.88 229.08 150.88 249.32C150.88 275.693 144.287 295.933 131.1 310.04C118.22 324.147 99.36 331.2 74.52 331.2Z" fill="white"/>
<path d="M253.492 331.2C228.959 331.2 210.252 324.3 197.372 310.5C184.492 296.393 178.052 276.307 178.052 250.24V4.6H228.652V253.92C228.652 264.96 230.799 272.933 235.092 277.84C239.692 282.747 246.132 285.2 254.412 285.2C262.692 285.2 268.979 282.747 273.272 277.84C277.872 272.933 280.172 264.96 280.172 253.92V4.6H328.932V250.24C328.932 276.307 322.492 296.393 309.612 310.5C296.732 324.3 278.026 331.2 253.492 331.2Z" fill="white"/>
<path d="M364.97 4.6H439.49C464.637 4.6 483.497 11.3467 496.07 24.84C508.644 38.3333 514.93 58.1133 514.93 84.18V115.92C514.93 141.987 508.644 161.767 496.07 175.26C483.497 188.753 464.637 195.5 439.49 195.5H415.57V326.6H364.97V4.6ZM439.49 149.5C447.77 149.5 453.904 147.2 457.89 142.6C462.184 138 464.33 130.18 464.33 119.14V80.96C464.33 69.92 462.184 62.1 457.89 57.5C453.904 52.9 447.77 50.6 439.49 50.6H415.57V149.5H439.49Z" fill="white"/>
<path d="M542.412 4.6H617.392C643.459 4.6 662.472 10.7333 674.432 23C686.392 34.96 692.372 53.5133 692.372 78.66V98.44C692.372 131.867 681.332 153.027 659.252 161.92V162.84C671.519 166.52 680.105 174.033 685.012 185.38C690.225 196.727 692.832 211.907 692.832 230.92V287.5C692.832 296.7 693.139 304.213 693.752 310.04C694.365 315.56 695.899 321.08 698.352 326.6H646.832C644.992 321.387 643.765 316.48 643.152 311.88C642.539 307.28 642.232 299 642.232 287.04V228.16C642.232 213.44 639.779 203.167 634.872 197.34C630.272 191.513 622.145 188.6 610.492 188.6H593.012V326.6H542.412V4.6ZM611.412 142.6C621.532 142.6 629.045 139.993 633.952 134.78C639.165 129.567 641.772 120.827 641.772 108.56V83.72C641.772 72.0667 639.625 63.6333 635.332 58.42C631.345 53.2067 624.905 50.6 616.012 50.6H593.012V142.6H611.412Z" fill="white"/>
<path d="M767.039 4.6H835.579L888.019 326.6H837.419L828.219 262.66V263.58H770.719L761.519 326.6H714.599L767.039 4.6ZM822.239 219.88L799.699 60.72H798.779L776.699 219.88H822.239Z" fill="white"/>
</svg>
