<svg width="60" height="60" viewBox="0 0 60 60" fill="none" xmlns="http://www.w3.org/2000/svg">
<path d="M34.83 30.7289C34.8119 31.6792 34.512 32.6028 33.9684 33.3826C33.4248 34.1623 32.6619 34.7631 31.7765 35.1087C30.891 35.4544 29.9229 35.5294 28.9948 35.3242C28.0667 35.1191 27.2204 34.6429 26.5631 33.9562C25.9059 33.2695 25.4674 32.4032 25.3031 31.4669C25.1389 30.5307 25.2562 29.5668 25.6404 28.6973C26.0246 27.8279 26.6583 27.0921 27.4611 26.5832C28.2639 26.0744 29.1998 25.8153 30.15 25.8389C31.4127 25.8857 32.6076 26.4224 33.4812 27.3352C34.3549 28.2481 34.8387 29.4653 34.83 30.7289Z" fill="#FFBF00"/>
<path d="M38.289 15.699H22.014C20.4036 15.699 18.8592 16.3387 17.7205 17.4774C16.5817 18.6161 15.942 20.1606 15.942 21.771V38.412C15.942 39.2094 16.0991 39.9989 16.4042 40.7356C16.7094 41.4723 17.1566 42.1417 17.7205 42.7055C18.2843 43.2694 18.9537 43.7166 19.6904 44.0218C20.4271 44.3269 21.2166 44.484 22.014 44.484H38.289C39.0864 44.484 39.876 44.3269 40.6127 44.0218C41.3494 43.7166 42.0187 43.2694 42.5826 42.7055C43.1464 42.1417 43.5937 41.4723 43.8988 40.7356C44.204 39.9989 44.361 39.2094 44.361 38.412V21.801C44.3642 21.0013 44.2095 20.2088 43.9058 19.469C43.6022 18.7292 43.1555 18.0566 42.5914 17.4898C42.0274 16.9229 41.357 16.4729 40.6187 16.1656C39.8804 15.8583 39.0887 15.6998 38.289 15.699ZM30.15 38.868C28.5389 38.9043 26.9535 38.4598 25.5961 37.5912C24.2388 36.7226 23.171 35.4692 22.5291 33.9911C21.8872 32.5129 21.7003 30.877 21.9922 29.2922C22.2841 27.7073 23.0416 26.2454 24.168 25.0929C25.2945 23.9405 26.7387 23.1498 28.3165 22.8218C29.8943 22.4938 31.534 22.6433 33.0264 23.2513C34.5189 23.8593 35.7963 24.8982 36.6957 26.2354C37.595 27.5726 38.0756 29.1475 38.076 30.759C38.0891 31.8121 37.8943 32.8575 37.5029 33.8353C37.1115 34.8131 36.531 35.7041 35.7948 36.4573C35.0586 37.2105 34.1811 37.8111 33.2125 38.2248C32.2439 38.6384 31.2032 38.857 30.15 38.868ZM38.958 22.653C38.7601 22.653 38.5641 22.6136 38.3816 22.5369C38.1991 22.4603 38.0337 22.348 37.8951 22.2066C37.7565 22.0652 37.6475 21.8976 37.5746 21.7136C37.5016 21.5296 37.466 21.3329 37.47 21.135C37.47 20.7324 37.6299 20.3463 37.9146 20.0616C38.1993 19.7769 38.5854 19.617 38.988 19.617C39.3906 19.617 39.7767 19.7769 40.0614 20.0616C40.3461 20.3463 40.506 20.7324 40.506 21.135C40.512 21.3493 40.4716 21.5624 40.3875 21.7596C40.3035 21.9568 40.1778 22.1336 40.0191 22.2777C39.8604 22.4219 39.6725 22.5301 39.4681 22.5948C39.2637 22.6596 39.0478 22.6794 38.835 22.653H38.958Z" fill="#FFBF00"/>
<path d="M30.15 -0.00011276C22.1935 -0.0398952 14.5471 3.08266 8.89287 8.68062C3.23865 14.2786 0.0397918 21.8934 9.31078e-06 29.8499C-0.0397732 37.8064 3.08278 45.4528 8.68074 51.107C14.2787 56.7612 21.8935 59.9601 29.85 59.9999C33.7897 60.0196 37.6946 59.2631 41.3419 57.7737C44.9892 56.2842 48.3075 54.091 51.1072 51.3192C53.9068 48.5473 56.1332 45.2512 57.659 41.619C59.1848 37.9867 59.9803 34.0895 60 30.1499C60.0197 26.2102 59.2632 22.3053 57.7738 18.658C56.2844 15.0107 54.0911 11.6924 51.3193 8.89275C48.5475 6.09306 45.2513 3.86674 41.6191 2.3409C37.9869 0.815063 34.0897 0.0195855 30.15 -0.00011276ZM48.369 38.1059C48.3774 39.4518 48.1185 40.786 47.6074 42.0311C47.0963 43.2762 46.3431 44.4074 45.3915 45.3593C44.44 46.3111 43.3089 47.0646 42.064 47.5761C40.819 48.0876 39.4849 48.3469 38.139 48.3389H22.167C20.8211 48.3473 19.4869 48.0884 18.2418 47.5773C16.9967 47.0662 15.8655 46.313 14.9136 45.3614C13.9618 44.4098 13.2083 43.2788 12.6968 42.0338C12.1853 40.7889 11.926 39.4548 11.934 38.1089V22.1339C11.9256 20.788 12.1845 19.4538 12.6956 18.2087C13.2067 16.9636 13.9599 15.8323 14.9115 14.8805C15.8631 13.9286 16.9941 13.1751 18.2391 12.6637C19.484 12.1522 20.8181 11.8929 22.164 11.9009H38.139C39.4847 11.8929 40.8185 12.1521 42.0633 12.6634C43.308 13.1747 44.4389 13.9279 45.3905 14.8794C46.342 15.831 47.0952 16.9619 47.6065 18.2066C48.1178 19.4514 48.377 20.7852 48.369 22.1309V38.1059Z" fill="#FFBF00"/>
</svg>
