<svg width="859" height="332" viewBox="0 0 859 332" fill="none" xmlns="http://www.w3.org/2000/svg">
<path d="M0 4.6H138V50.6H50.6V135.7H120.06V181.7H50.6V280.6H138V326.6H0V4.6Z" fill="white"/>
<path d="M238.409 331.2C214.183 331.2 195.629 324.3 182.749 310.5C170.176 296.7 163.889 277.227 163.889 252.08V79.12C163.889 53.9733 170.176 34.5 182.749 20.7C195.629 6.9 214.183 0 238.409 0C262.636 0 281.036 6.9 293.609 20.7C306.489 34.5 312.929 53.9733 312.929 79.12V113.16H265.089V75.9C265.089 55.9667 256.656 46 239.789 46C222.923 46 214.489 55.9667 214.489 75.9V255.76C214.489 275.387 222.923 285.2 239.789 285.2C256.656 285.2 265.089 275.387 265.089 255.76V206.54H312.929V252.08C312.929 277.227 306.489 296.7 293.609 310.5C281.036 324.3 262.636 331.2 238.409 331.2Z" fill="white"/>
<path d="M343.203 4.6H393.803V135.7H448.083V4.6H498.683V326.6H448.083V181.7H393.803V326.6H343.203V4.6Z" fill="white"/>
<path d="M609.507 331.2C584.667 331.2 565.654 324.147 552.467 310.04C539.28 295.933 532.687 276 532.687 250.24V80.96C532.687 55.2 539.28 35.2667 552.467 21.16C565.654 7.05333 584.667 0 609.507 0C634.347 0 653.361 7.05333 666.547 21.16C679.734 35.2667 686.327 55.2 686.327 80.96V250.24C686.327 276 679.734 295.933 666.547 310.04C653.361 324.147 634.347 331.2 609.507 331.2ZM609.507 285.2C626.987 285.2 635.727 274.62 635.727 253.46V77.74C635.727 56.58 626.987 46 609.507 46C592.027 46 583.287 56.58 583.287 77.74V253.46C583.287 274.62 592.027 285.2 609.507 285.2Z" fill="white"/>
<path d="M720.547 4.6H858.547V50.6H771.147V135.7H840.607V181.7H771.147V280.6H858.547V326.6H720.547V4.6Z" fill="white"/>
</svg>
