<svg width="826" height="332" viewBox="0 0 826 332" fill="none" xmlns="http://www.w3.org/2000/svg">
<path d="M74.52 331.2C49.9867 331.2 31.4333 324.3 18.86 310.5C6.28667 296.393 0 276.307 0 250.24V231.84H47.84V253.92C47.84 274.773 56.58 285.2 74.06 285.2C82.6467 285.2 89.0867 282.747 93.38 277.84C97.98 272.627 100.28 264.347 100.28 253C100.28 239.507 97.2133 227.7 91.08 217.58C84.9467 207.153 73.6 194.733 57.04 180.32C36.1867 161.92 21.62 145.36 13.34 130.64C5.06 115.613 0.919999 98.7467 0.919999 80.04C0.919999 54.5867 7.36 34.96 20.24 21.16C33.12 7.05333 51.8267 0 76.36 0C100.587 0 118.833 7.05333 131.1 21.16C143.673 34.96 149.96 54.8933 149.96 80.96V94.3H102.12V77.74C102.12 66.7 99.9733 58.7267 95.68 53.82C91.3867 48.6067 85.1 46 76.82 46C59.9533 46 51.52 56.2733 51.52 76.82C51.52 88.4733 54.5867 99.36 60.72 109.48C67.16 119.6 78.66 131.867 95.22 146.28C116.38 164.68 130.947 181.393 138.92 196.42C146.893 211.447 150.88 229.08 150.88 249.32C150.88 275.693 144.287 295.933 131.1 310.04C118.22 324.147 99.36 331.2 74.52 331.2Z" fill="white"/>
<path d="M167.932 4.6H216.692L239.232 252.08H240.152L264.072 4.6H319.272L343.192 252.08H344.112L366.652 4.6H410.352L377.692 326.6H314.672L291.672 109.48H290.752L267.752 326.6H200.592L167.932 4.6Z" fill="white"/>
<path d="M435.947 4.6H486.547V326.6H435.947V4.6Z" fill="white"/>
<path d="M524.443 4.6H658.303V50.6H575.043V140.3H640.363V186.3H575.043V326.6H524.443V4.6Z" fill="white"/>
<path d="M722.128 50.6H669.228V4.6H825.628V50.6H772.728V326.6H722.128V50.6Z" fill="white"/>
</svg>
