<svg width="75" height="43" viewBox="0 0 75 43" fill="none" xmlns="http://www.w3.org/2000/svg">
<path d="M39.8365 41.999L74.1087 6.02928C74.6808 5.42911 75 4.63174 75 3.80255C75 2.97337 74.6808 2.176 74.1087 1.57583L74.07 1.5371C73.7926 1.24514 73.4588 1.01266 73.0887 0.853798C72.7187 0.694931 72.3202 0.613006 71.9175 0.613006C71.5148 0.613006 71.1163 0.694931 70.7462 0.853798C70.3762 1.01266 70.0423 1.24514 69.765 1.5371L37.4935 35.4092L5.23504 1.5371C4.95768 1.24513 4.62383 1.01265 4.25378 0.853792C3.88374 0.694925 3.48525 0.613 3.08255 0.613C2.67984 0.613 2.28135 0.694925 1.9113 0.853792C1.54126 1.01265 1.2074 1.24513 0.930042 1.5371L0.891308 1.57582C0.319172 2.176 3.49924e-06 2.97336 3.42676e-06 3.80254C3.35427e-06 4.63173 0.319171 5.4291 0.891307 6.02928L35.1635 41.999C35.4649 42.3153 35.8274 42.5672 36.2291 42.7393C36.6307 42.9113 37.0631 43.0001 37.5 43.0001C37.9369 43.0001 38.3693 42.9113 38.7709 42.7393C39.1726 42.5672 39.5351 42.3153 39.8365 41.999Z" fill="#FFFFFF"/>
</svg>
