<svg width="100" height="76" viewBox="0 0 100 76" fill="none" xmlns="http://www.w3.org/2000/svg">
<path d="M51.8365 41.999L86.1087 6.02928C86.6808 5.42911 87 4.63174 87 3.80255C87 2.97337 86.6808 2.176 86.1087 1.57583L86.07 1.5371C85.7926 1.24514 85.4588 1.01266 85.0887 0.853798C84.7187 0.694931 84.3202 0.613006 83.9175 0.613006C83.5148 0.613006 83.1163 0.694931 82.7462 0.853798C82.3762 1.01266 82.0423 1.24514 81.765 1.5371L49.4935 35.4092L17.235 1.5371C16.9577 1.24513 16.6238 1.01265 16.2538 0.853792C15.8837 0.694925 15.4852 0.613 15.0825 0.613C14.6798 0.613 14.2813 0.694925 13.9113 0.853792C13.5413 1.01265 13.2074 1.24513 12.93 1.5371L12.8913 1.57582C12.3192 2.176 12 2.97336 12 3.80254C12 4.63173 12.3192 5.4291 12.8913 6.02928L47.1635 41.999C47.4649 42.3153 47.8274 42.5672 48.2291 42.7393C48.6307 42.9113 49.0631 43.0001 49.5 43.0001C49.9369 43.0001 50.3693 42.9113 50.7709 42.7393C51.1726 42.5672 51.5351 42.3153 51.8365 41.999Z" fill="#FFBF00"/>
</svg>
