<svg width="42" height="42" viewBox="0 0 42 42" fill="none" xmlns="http://www.w3.org/2000/svg">
<circle cx="21" cy="21" r="19.5" fill="#202020" stroke="#FFBF00" stroke-width="3"/>
<path d="M35.8028 33.3599C33.8984 29.8954 30.9249 27.1959 27.3607 25.696C29.1331 24.318 30.4424 22.3969 31.103 20.2048C31.7636 18.0127 31.742 15.6607 31.0414 13.482C30.3408 11.3033 28.9966 9.40826 27.1993 8.06543C25.402 6.7226 23.2426 6 21.0271 6C18.8115 6 16.6522 6.7226 14.8548 8.06543C13.0575 9.40826 11.7133 11.3033 11.0127 13.482C10.3121 15.6607 10.2906 18.0127 10.9512 20.2048C11.6118 22.3969 12.921 24.318 14.6934 25.696C11.1293 27.1959 8.1557 29.8954 6.25139 33.3599C6.13339 33.5565 6.05474 33.7758 6.02013 34.0046C5.98551 34.2334 5.99563 34.4671 6.04988 34.6918C6.10413 34.9165 6.20141 35.1275 6.33593 35.3125C6.47045 35.4974 6.63947 35.6524 6.83293 35.7683C7.0264 35.8841 7.24036 35.9585 7.46211 35.9869C7.68385 36.0154 7.90885 35.9973 8.12372 35.9338C8.33859 35.8703 8.53896 35.7627 8.7129 35.6173C8.88684 35.4719 9.0308 35.2918 9.13624 35.0876C11.653 30.5782 16.0977 27.8887 21.0271 27.8887C25.9565 27.8887 30.4011 30.5797 32.9179 35.0876C33.1464 35.4684 33.5088 35.7423 33.9286 35.8512C34.3483 35.9601 34.7924 35.8955 35.1671 35.6711C35.5417 35.4468 35.8175 35.0802 35.9361 34.6488C36.0548 34.2175 36.0069 33.7553 35.8028 33.3599ZM13.8045 16.9465C13.8045 15.4658 14.2281 14.0183 15.0217 12.7871C15.8154 11.5559 16.9434 10.5963 18.2631 10.0297C19.5829 9.463 21.0351 9.31473 22.4361 9.60361C23.8372 9.89249 25.1241 10.6055 26.1342 11.6526C27.1443 12.6996 27.8322 14.0336 28.1108 15.4859C28.3895 16.9382 28.2465 18.4436 27.6998 19.8116C27.1532 21.1796 26.2274 22.3489 25.0397 23.1716C23.852 23.9942 22.4556 24.4333 21.0271 24.4333C19.1122 24.431 17.2764 23.6415 15.9224 22.238C14.5684 20.8344 13.8067 18.9314 13.8045 16.9465Z" fill="#FFBF00"/>
</svg>
