<svg width="46" height="45" viewBox="0 0 46 45" fill="none" xmlns="http://www.w3.org/2000/svg">
<path fill-rule="evenodd" clip-rule="evenodd" d="M34.7225 19.6086C34.7225 21.5401 34.3421 23.4526 33.6029 25.2371C32.8638 27.0215 31.7804 28.6429 30.4146 30.0086C29.0489 31.3744 27.4275 32.4578 25.6431 33.1969C23.8586 33.9361 21.9461 34.3165 20.0146 34.3165C18.0831 34.3165 16.1706 33.9361 14.3861 33.1969C12.6017 32.4578 10.9803 31.3744 9.61455 30.0086C8.24879 28.6429 7.16542 27.0215 6.42628 25.2371C5.68714 23.4526 5.3067 21.5401 5.3067 19.6086C5.3067 15.7078 6.85628 11.9668 9.61455 9.20854C12.3728 6.45028 16.1138 4.9007 20.0146 4.9007C23.9154 4.9007 27.6564 6.45028 30.4146 9.20854C33.1729 11.9668 34.7225 15.7078 34.7225 19.6086ZM32.0424 35.1009C28.1019 38.1601 23.1437 39.6025 18.1771 39.1346C13.2105 38.6667 8.60894 36.3236 5.30915 32.5823C2.00937 28.8409 0.259449 23.9827 0.415628 18.9966C0.571807 14.0104 2.62235 9.27126 6.1498 5.7438C9.67726 2.21634 14.4165 0.165801 19.4026 0.00962214C24.3887 -0.146556 29.247 1.60337 32.9883 4.90315C36.7296 8.20293 39.0727 12.8045 39.5406 17.7711C40.0085 22.7377 38.5661 27.6959 35.5069 31.6364L44.6258 40.7553C44.8666 40.9797 45.0598 41.2503 45.1938 41.551C45.3278 41.8517 45.3998 42.1763 45.4056 42.5054C45.4114 42.8346 45.3509 43.1615 45.2276 43.4667C45.1043 43.772 44.9208 44.0493 44.688 44.282C44.4553 44.5148 44.178 44.6983 43.8728 44.8216C43.5675 44.9449 43.2406 45.0054 42.9114 44.9996C42.5823 44.9938 42.2577 44.9218 41.957 44.7878C41.6563 44.6538 41.3857 44.4606 41.1613 44.2198L32.0424 35.1009Z" fill="white"/>
</svg>
