<svg width="38" height="38" viewBox="0 0 38 38" fill="none" xmlns="http://www.w3.org/2000/svg">
<path d="M27.6681 38C28.5897 38 29.4735 37.6417 30.1251 37.0041C30.7768 36.3665 31.1428 35.5017 31.1428 34.6C31.1428 33.6982 30.7768 32.8334 30.1251 32.1958C29.4735 31.5582 28.5897 31.2 27.6681 31.2C26.7466 31.2 25.8628 31.5582 25.2111 32.1958C24.5595 32.8334 24.1934 33.6982 24.1934 34.6C24.1934 35.5017 24.5595 36.3665 25.2111 37.0041C25.8628 37.6417 26.7466 38 27.6681 38ZM12.2747 38C13.1963 38 14.0801 37.6417 14.7317 37.0041C15.3834 36.3665 15.7494 35.5017 15.7494 34.6C15.7494 33.6982 15.3834 32.8334 14.7317 32.1958C14.0801 31.5582 13.1963 31.2 12.2747 31.2C11.3532 31.2 10.4693 31.5582 9.81771 32.1958C9.16607 32.8334 8.79999 33.6982 8.79999 34.6C8.79999 35.5017 9.16607 36.3665 9.81771 37.0041C10.4693 37.6417 11.3532 38 12.2747 38Z" fill="#FFBF00"/>
<path d="M7.1 5.45713H36L32.6 24.1571M7.1 5.45713L10.5 24.1571H32.6M7.1 5.45713C6.8161 4.32323 5.4 2.05713 2 2.05713M32.6 24.1571H7.491C4.4582 24.1571 2.85 25.4848 2.85 27.5571C2.85 29.6294 4.4582 30.9571 7.491 30.9571H31.75" stroke="#FFBF00" stroke-width="4" stroke-linecap="round" stroke-linejoin="round"/>
</svg>
